<svg xmlns="http://www.w3.org/2000/svg" xmlns:xlink="http://www.w3.org/1999/xlink" viewBox="0 0 1016.67194 1016.67194"><defs><style>.a{fill:url(#a);}.b,.c{fill:#fff;}.b{opacity:0.54;}.d,.h{fill:#333;}.e{fill:#534741;}.f{fill:#726f70;}.g,.k{fill:#666;}.h{stroke:gray;stroke-width:7.13146px;}.aa,.ab,.ac,.ad,.ae,.af,.ag,.ah,.ai,.aj,.ak,.al,.am,.an,.ao,.ap,.aq,.ar,.as,.at,.au,.av,.aw,.ax,.ay,.az,.ba,.bb,.bc,.bd,.be,.bf,.bo,.h,.k,.m,.o,.p,.q,.r,.s,.t,.u,.v,.w,.x,.y,.z{stroke-miterlimit:10;}.i{fill:#1a1a1a;}.j{fill:#72aba6;}.k,.m{stroke:#c7b299;stroke-width:4.80662px;}.l,.m{fill:#c7b299;}.n{fill:#bdb299;}.o,.q,.s,.t,.u{fill:#d8b04c;}.o{stroke-width:1.00505px;stroke:url(#b);}.aa,.ab,.ac,.ad,.ae,.af,.ag,.ah,.ai,.aj,.ak,.al,.am,.an,.ao,.ap,.aq,.p,.y,.z{fill:#c29c4c;stroke-width:1.22426px;}.p{stroke:url(#c);}.ar,.as,.au,.av,.aw,.ax,.ay,.az,.ba,.bb,.bc,.bd,.be,.bf,.q,.r,.v{stroke-width:1.17555px;}.q{stroke:url(#d);}.ar,.as,.at,.au,.av,.aw,.ax,.ay,.az,.ba,.bb,.bc,.bd,.be,.bf,.r,.v{fill:#bd9a4c;}.r{stroke:url(#e);}.s,.t,.u{stroke-width:1.12469px;}.s{stroke:url(#f);}.t{stroke:url(#g);}.u{stroke:url(#h);}.v{stroke:url(#i);}.bm,.w{fill:#998675;}.w,.x{stroke-width:1.04104px;}.w{stroke:url(#j);}.x{fill:#736357;stroke:url(#k);}.y{stroke:url(#l);}.z{stroke:url(#m);}.aa{stroke:url(#n);}.ab{stroke:url(#o);}.ac{stroke:url(#p);}.ad{stroke:url(#q);}.ae{stroke:url(#r);}.af{stroke:url(#s);}.ag{stroke:url(#t);}.ah{stroke:url(#u);}.ai{stroke:url(#v);}.aj{stroke:url(#w);}.ak{stroke:url(#x);}.al{stroke:url(#y);}.am{stroke:url(#z);}.an{stroke:url(#aa);}.ao{stroke:url(#ab);}.ap{stroke:url(#ac);}.aq{stroke:url(#ad);}.ar{stroke:url(#ae);}.as{stroke:url(#af);}.at{stroke-width:1.12541px;stroke:url(#ag);}.au{stroke:url(#ah);}.av{stroke:url(#ai);}.aw{stroke:url(#aj);}.ax{stroke:url(#ak);}.ay{stroke:url(#al);}.az{stroke:url(#am);}.ba{stroke:url(#an);}.bb{stroke:url(#ao);}.bc{stroke:url(#ap);}.bd{stroke:url(#aq);}.be{stroke:url(#ar);}.bf{stroke:url(#as);}.bg{fill:#d68d68;}.bh{fill:#a9775b;}.bi{fill:#c6846b;}.bj{fill:#d4ae77;}.bk{fill:#53473c;}.bl{fill:#734d2d;}.bn{fill:url(#at);}.bo{fill:#c69c6d;stroke:#736357;stroke-width:6.75898px;opacity:0.29;}</style><radialGradient id="a" cx="508.33597" cy="508.33597" r="508.33597" gradientUnits="userSpaceOnUse"><stop offset="0" stop-color="#5ec8b5"/><stop offset="0.17302" stop-color="#57c2b3"/><stop offset="0.41917" stop-color="#45b1af"/><stop offset="0.70911" stop-color="#2696a7"/><stop offset="1" stop-color="#00749d"/></radialGradient><linearGradient id="b" x1="430.22836" y1="668.86992" x2="851.95846" y2="299.25418" gradientUnits="userSpaceOnUse"><stop offset="0" stop-color="#efafca"/><stop offset="0.77743" stop-color="#f4eaba"/><stop offset="0.97728" stop-color="#e3efb9"/></linearGradient><linearGradient id="c" x1="370.90064" y1="207.10971" x2="426.78503" y2="158.13111" xlink:href="#b"/><linearGradient id="d" x1="520.3907" y1="303.95555" x2="663.37796" y2="178.63763" xlink:href="#b"/><linearGradient id="e" x1="557.83182" y1="767.51198" x2="970.25677" y2="406.05154" xlink:href="#b"/><linearGradient id="f" x1="851.11774" y1="401.80491" x2="934.09191" y2="329.08409" xlink:href="#b"/><linearGradient id="g" x1="851.27045" y1="420.67774" x2="933.03402" y2="349.01792" xlink:href="#b"/><linearGradient id="h" x1="706.066" y1="212.8743" x2="779.71657" y2="148.32494" xlink:href="#b"/><linearGradient id="i" x1="717.03273" y1="205.84002" x2="782.33924" y2="148.60362" xlink:href="#b"/><linearGradient id="j" x1="420.24739" y1="257.20873" x2="441.9291" y2="238.20628" xlink:href="#b"/><linearGradient id="k" x1="429.16065" y1="267.04969" x2="462.1571" y2="238.1307" xlink:href="#b"/><linearGradient id="l" x1="424.31698" y1="186.12076" x2="460.92006" y2="154.04082" xlink:href="#b"/><linearGradient id="m" x1="458.98451" y1="222.24784" x2="494.07345" y2="191.49495" xlink:href="#b"/><linearGradient id="n" x1="491.70065" y1="211.51129" x2="531.62471" y2="176.52077" xlink:href="#b"/><linearGradient id="o" x1="545.40501" y1="265.6596" x2="585.58589" y2="230.44398" xlink:href="#b"/><linearGradient id="p" x1="612.34008" y1="262.69845" x2="653.33466" y2="226.76968" xlink:href="#b"/><linearGradient id="q" x1="662.14618" y1="312.14235" x2="706.07605" y2="273.64102" xlink:href="#b"/><linearGradient id="r" x1="728.07633" y1="303.19877" x2="748.32254" y2="285.45444" xlink:href="#b"/><linearGradient id="s" x1="809.36821" y1="350.28041" x2="846.37001" y2="317.85103" xlink:href="#b"/><linearGradient id="t" x1="843.50247" y1="378.96877" x2="877.92056" y2="348.80382" xlink:href="#b"/><linearGradient id="u" x1="891.71825" y1="366.64048" x2="918.46454" y2="343.19931" xlink:href="#b"/><linearGradient id="v" x1="926.93248" y1="397.28191" x2="949.19731" y2="377.7684" xlink:href="#b"/><linearGradient id="w" x1="954.93089" y1="384.61855" x2="969.19897" y2="372.11361" xlink:href="#b"/><linearGradient id="x" x1="487.50751" y1="275.44968" x2="517.57679" y2="249.09615" xlink:href="#b"/><linearGradient id="y" x1="531.49361" y1="269.41921" x2="565.00483" y2="240.04907" xlink:href="#b"/><linearGradient id="z" x1="568.93946" y1="302.82276" x2="600.07816" y2="275.53196" xlink:href="#b"/><linearGradient id="aa" x1="618.74405" y1="306.055" x2="651.83669" y2="277.05172" xlink:href="#b"/><linearGradient id="ab" x1="643.16513" y1="328.34934" x2="674.67612" y2="300.73225" xlink:href="#b"/><linearGradient id="ac" x1="685.7208" y1="326.14992" x2="706.98383" y2="307.51442" xlink:href="#b"/><linearGradient id="ad" x1="701.77833" y1="340.0809" x2="719.73005" y2="324.34752" xlink:href="#b"/><linearGradient id="ae" x1="708.86495" y1="262.2532" x2="768.61948" y2="209.88271" xlink:href="#b"/><linearGradient id="af" x1="729.21591" y1="281.16014" x2="778.72618" y2="237.76799" xlink:href="#b"/><linearGradient id="ag" x1="701.30524" y1="391.83949" x2="760.87955" y2="339.62694" xlink:href="#b"/><linearGradient id="ah" x1="731.97461" y1="435.48327" x2="774.30552" y2="398.38332" xlink:href="#b"/><linearGradient id="ai" x1="692.62063" y1="485.05716" x2="738.19817" y2="445.11176" xlink:href="#b"/><linearGradient id="aj" x1="726.26775" y1="536.66286" x2="769.84405" y2="498.4714" xlink:href="#b"/><linearGradient id="ak" x1="691.88021" y1="581.74033" x2="731.81874" y2="546.73711" xlink:href="#b"/><linearGradient id="al" x1="721.70469" y1="635.27475" x2="764.38005" y2="597.87291" xlink:href="#b"/><linearGradient id="am" x1="686.80902" y1="678.80103" x2="730.73088" y2="640.30672" xlink:href="#b"/><linearGradient id="an" x1="708.56915" y1="745.44102" x2="765.13751" y2="695.86298" xlink:href="#b"/><linearGradient id="ao" x1="676.58833" y1="794.53238" x2="735.01755" y2="743.32343" xlink:href="#b"/><linearGradient id="ap" x1="706.46703" y1="866.32293" x2="759.70675" y2="819.6622" xlink:href="#b"/><linearGradient id="aq" x1="683.06999" y1="902.72017" x2="721.29376" y2="869.21982" xlink:href="#b"/><linearGradient id="ar" x1="709.65135" y1="938.30476" x2="739.79142" y2="911.88918" xlink:href="#b"/><linearGradient id="as" x1="695.28334" y1="959.40644" x2="718.91074" y2="938.69874" xlink:href="#b"/><linearGradient id="at" x1="163.62806" y1="990.31796" x2="771.84625" y2="990.31796" gradientUnits="userSpaceOnUse"><stop offset="0" stop-color="#c69c6d"/><stop offset="1" stop-color="#8c6239"/></linearGradient></defs><circle class="a" cx="508.33597" cy="508.33597" r="508.33597"/><circle class="b" cx="243.43221" cy="231.69518" r="72.98047"/><polygon class="c" points="921.389 519.331 926.548 524.544 930.825 519.304 929.082 525.389 934.128 528.408 927.755 528.062 926.148 533.839 924.858 527.924 918.498 528.314 924.013 525.389 921.389 519.331"/><polygon class="c" points="381.515 268.404 386.674 273.617 390.951 268.377 389.209 274.462 394.255 277.481 387.881 277.135 386.275 282.912 384.985 276.997 378.625 277.387 384.14 274.462 381.515 268.404"/><polygon class="c" points="666.237 435.689 671.396 440.902 675.673 435.662 673.931 441.747 678.977 444.766 672.603 444.419 670.997 450.196 669.707 444.282 663.347 444.672 668.862 441.747 666.237 435.689"/><polygon class="c" points="345.186 443.293 350.345 448.506 354.622 443.266 352.879 449.351 357.926 452.37 351.552 452.023 349.945 457.8 348.655 451.885 342.296 452.276 347.81 449.351 345.186 443.293"/><polygon class="c" points="324.909 94.361 330.068 99.574 334.345 94.334 332.603 100.419 337.649 103.437 331.275 103.091 329.668 108.868 328.378 102.953 322.019 103.343 327.533 100.419 324.909 94.361"/><polygon class="c" points="531.903 79.998 537.062 85.211 541.339 79.971 539.596 86.056 544.642 89.074 538.269 88.728 536.662 94.505 535.372 88.59 529.012 88.98 534.527 86.056 531.903 79.998"/><polygon class="c" points="891.818 245.593 896.977 250.806 901.254 245.566 899.512 251.651 904.558 254.669 898.184 254.323 896.578 260.1 895.287 254.185 888.928 254.575 894.443 251.651 891.818 245.593"/><polygon class="c" points="718.619 144.208 723.778 149.421 728.055 144.181 726.313 150.266 731.359 153.285 724.985 152.938 723.379 158.715 722.089 152.801 715.729 153.191 721.244 150.266 718.619 144.208"/><polygon class="c" points="257.319 370.634 262.478 375.847 266.755 370.607 265.013 376.692 270.059 379.71 263.685 379.364 262.079 385.141 260.788 379.226 254.429 379.617 259.944 376.692 257.319 370.634"/><polygon class="c" points="107.777 279.388 112.936 284.601 117.213 279.361 115.47 285.446 120.516 288.464 114.143 288.118 112.536 293.895 111.246 287.98 104.886 288.37 110.401 285.446 107.777 279.388"/><polygon class="c" points="565.697 335.994 570.857 341.207 575.134 335.967 573.391 342.052 578.437 345.071 572.063 344.724 570.457 350.501 569.167 344.587 562.807 344.977 568.322 342.052 565.697 335.994"/><polygon class="c" points="53.705 470.329 58.864 475.542 63.141 470.302 61.399 476.387 66.445 479.405 60.071 479.059 58.464 484.836 57.174 478.921 50.815 479.311 56.329 476.387 53.705 470.329"/><polygon class="d" points="611.587 604.135 591.438 608.009 591.438 381.889 611.587 378.015 611.587 604.135"/><polygon class="d" points="522.146 585.294 535.462 589.274 535.462 355.27 522.146 353.035 522.146 585.294"/><polygon class="d" points="450.252 585.294 463.567 589.274 463.567 353.035 450.252 353.035 450.252 585.294"/><polygon class="e" points="490.063 601.445 492.909 602.901 492.909 458.273 490.063 459.253 490.063 601.445"/><polygon class="e" points="499.787 580.084 502.633 581.54 502.633 436.911 499.787 437.892 499.787 580.084"/><polygon class="e" points="509.51 606.553 512.357 608.009 512.357 463.38 509.51 464.361 509.51 606.553"/><polygon class="f" points="403.574 637.786 415.883 637.786 415.883 645.948 428.819 645.948 428.819 656.438 439.463 656.438 439.463 663.382 452.312 663.382 452.312 670.745 464.417 670.745 464.417 676.005 476.833 676.005 476.833 678.955 395 685.98 403.574 637.786"/><polygon class="g" points="292.782 796.9 283.577 798.17 284.419 804.274 274.745 805.609 275.827 813.453 267.868 814.551 268.584 819.744 258.975 821.069 259.734 826.576 250.682 827.824 251.225 831.757 241.94 833.038 242.244 835.244 304.165 832.057 292.782 796.9"/><polygon class="d" points="424.497 585.294 437.812 589.274 437.812 353.035 424.497 353.035 424.497 585.294"/><polygon class="h" points="528.822 546.889 194.994 507.092 172.166 613.123 528.822 598.099 528.822 546.889"/><rect class="d" x="145.59811" y="585.3074" width="540.57056" height="22.70166" transform="translate(-44.53909 33.65629) rotate(-4.39896)"/><rect class="f" x="144.63455" y="585.44364" width="540.57056" height="1.29884" transform="matrix(0.99705, -0.0767, 0.0767, 0.99705, -43.73157, 33.55126)"/><rect class="d" x="124.71514" y="685.28345" width="540.57056" height="22.70166" transform="translate(-52.26886 32.34906) rotate(-4.39896)"/><polygon class="i" points="405.194 541.605 456.208 547.87 450.291 570.32 398.779 566.963 405.194 541.605"/><polygon class="i" points="482.203 553.895 504.577 555.597 500.997 573.287 479.219 569.11 482.203 553.895"/><polyline class="i" points="284.619 542.085 284.619 563.591 366.397 566.963 366.397 533.012 285.613 541.605"/><polygon class="g" points="352.248 555.597 267.054 548.526 279.935 528.574 366.397 533.012 352.248 555.597"/><polygon class="g" points="438.059 558.984 386.15 554.284 405.194 541.605 456.208 547.929 438.059 558.984"/><polygon class="g" points="499.216 561.271 471.223 558.984 482.611 553.895 504.577 555.597 499.216 561.271"/><polygon class="d" points="383.067 849.357 284.619 849.357 267.054 602.901 412.303 602.901 383.067 849.357"/><polygon class="d" points="167.078 608.009 179.608 849.357 222.567 849.357 207.65 608.009 167.078 608.009"/><polygon class="d" points="532.322 596.658 519.792 849.357 476.833 849.357 491.749 596.658 532.322 596.658"/><rect class="d" x="591.43849" y="596.65824" width="20.14815" height="252.69829"/><polygon class="j" points="545.017 578.066 543.683 565.901 553.201 565.169 552.614 557.535 561.735 556.833 561.325 551.977 568.897 551.395 569.24 555.857 576.478 555.3 577.085 563.182 584.223 562.633 585.387 573.864 545.017 578.066"/><polygon class="f" points="548.141 577.826 546.806 565.661 556.324 564.929 555.737 557.294 564.859 556.593 564.448 551.737 572.02 551.155 572.364 555.616 579.601 555.06 580.208 562.942 587.347 562.393 588.51 573.623 548.141 577.826"/><rect class="f" x="123.78087" y="683.84004" width="540.57056" height="1.29884" transform="translate(-51.34009 32.24163) rotate(-4.39896)"/><polyline class="i" points="297.795 635.922 298.897 657.4 380.741 656.574 379 622.668 298.763 635.392"/><polygon class="g" points="366.028 645.948 280.583 643.255 292.424 622.669 379 622.668 366.028 645.948"/><polygon class="i" points="312.123 738.001 363.52 737.778 360.16 763.238 308.959 763.965 312.123 738.001"/><polygon class="g" points="346.918 751.093 299.759 751.505 312.123 738.001 363.527 737.836 346.918 751.093"/><polygon class="i" points="310.271 793.841 361.668 793.619 358.308 819.079 307.107 819.806 310.271 793.841"/><polygon class="g" points="345.066 806.934 297.908 807.346 310.271 793.841 361.675 793.677 345.066 806.934"/><polygon class="i" points="492.541 713.377 514.721 709.98 515.23 728.021 493.071 728.872 492.541 713.377"/><polygon class="g" points="510.781 716.718 487.444 718.464 492.938 713.285 514.721 709.98 510.781 716.718"/><polygon class="i" points="495.781 651.351 517.961 647.954 518.47 665.995 496.312 666.846 495.781 651.351"/><polygon class="g" points="514.021 654.692 490.684 656.438 496.179 651.259 517.961 647.954 514.021 654.692"/><polygon class="i" points="492.286 759.528 514.467 756.13 514.976 774.172 492.817 775.023 492.286 759.528"/><polygon class="g" points="510.526 762.869 487.19 764.614 492.684 759.435 514.467 756.13 510.526 762.869"/><polygon class="i" points="489.533 805.868 511.713 802.471 512.222 820.512 490.063 821.363 489.533 805.868"/><polygon class="g" points="507.773 809.209 484.436 810.955 489.93 805.776 511.713 802.471 507.773 809.209"/><polygon class="i" points="498.329 611.406 520.51 608.009 521.018 626.051 498.86 626.902 498.329 611.406"/><polygon class="g" points="516.569 614.748 493.233 616.493 498.727 611.314 520.51 608.009 516.569 614.748"/><polygon class="k" points="146.803 843.965 185.128 986.141 609.046 986.141 618.336 819.806 146.803 843.965"/><polygon class="l" points="144.865 841.564 618.336 819.806 616.807 852.345 154.787 868.124 144.865 841.564"/><polygon class="m" points="203.712 983.511 182.674 886.035 218.438 883.931 237.723 983.511 203.712 983.511"/><polygon class="m" points="341.802 981.954 329.206 871.154 420.371 869.621 423.643 984.584 341.802 981.954"/><polygon class="m" points="476.833 983.511 475.454 863.201 512.222 861.841 509.465 983.511 476.833 983.511"/><polygon class="n" points="146.803 855.849 619.915 835.193 625.212 813.804 142.351 840.521 146.803 855.849"/><polygon class="o" points="372.658 153.68 430.727 139.163 716.609 273.17 716.609 232.968 769.096 206.166 734.477 967.774 693.158 967.774 716.609 344.64 372.658 222.917 372.658 153.68"/><path class="p" d="M380.66168,160.37186q19.38761-4.61469,38.77508-9.22939l3.69331,48.39984-43.88029,15.49594Q379.95567,187.70507,380.66168,160.37186Z"/><path class="q" d="M430.7274,139.1626v61.42l332.53135,133.9957,1.76817-38.90352Q597.87717,217.41867,430.7274,139.1626Z"/><polygon class="r" points="769.096 206.166 821.582 237.435 759.045 967.774 734.477 967.774 769.096 206.166"/><path class="s" d="M815.08431,313.31627q79.75385,31.47048,159.50793,62.941,3.642,15.36783,7.2837,30.73566l-171-52.19831Z"/><polygon class="t" points="981.876 406.993 965.71 411.612 810.876 373.505 810.876 354.795 981.876 406.993"/><path class="u" d="M722.92114,229.74464q14.00328-36.66549,28.00631-73.331a26.49139,26.49139,0,0,1,.55553-16.02917,18.22313,18.22313,0,0,1,6.18049-8.79781c2.12028-1.52693,4.56961-2.42732,4.70064-2.20662.12343.20805-1.96447,1.15764-3.93728,3.41157a16.65365,16.65365,0,0,0-3.61216,7.55638,18.74023,18.74023,0,0,0-.26328,6.51607s.27359,1.46629,2.72709,7.24009q-11.08381,34.708-22.16787,69.416Z"/><path class="v" d="M734.47705,223.42477q11.40072-34.66029,22.80143-69.3206a18.6173,18.6173,0,0,1-2.88683-10.97006c.49639-7.04313,5.54816-14.40162,9.23786-13.85692,3.33709.49266,5.48019,7.43862,5.19654,12.70218-.37419,6.94206-4.99754,11.46609-6.35127,12.70217l-15.80826,62.51881Z"/><ellipse class="g" cx="763.87804" cy="141.40776" rx="4.55516" ry="2.00003" transform="translate(542.73442 886.12335) rotate(-83.94896)"/><polygon class="g" points="813.989 232.113 764.443 139.718 763.313 142.102 806.134 227.434 813.989 232.113"/><path class="w" d="M423.13007,240.40474l12.65818-7.67324q-.10675,12.61014-.21361,25.22027l-11.07831,2.89742Q423.81314,250.627,423.13007,240.40474Z"/><path class="x" d="M435.78825,232.7315l33.02144,14.05884q-5.89494,12.35454-11.78975,24.70907-3.18011-1.071-6.3839-2.13647-4.135-1.37506-8.244-2.71893s-4.812-1.57365-17.89573-5.79482c.0012.905,3.85238-.751,11.07831-2.89742Q435.68139,245.34163,435.78825,232.7315Z"/><polygon class="y" points="437.351 151.142 437.351 198.883 471.223 167.191 437.351 151.142"/><polygon class="z" points="441.071 200.294 474.559 170.463 499.578 223.425 441.071 200.294"/><polygon class="aa" points="482.065 171.263 555.391 205.328 505.909 226.554 482.065 171.263"/><polygon class="ab" points="514.782 228.778 567.514 210.789 612.846 268.755 514.782 228.778"/><polyline class="ac" points="582.142 218.183 620.538 271.08 686.166 266.51 583.405 218.183"/><polygon class="ad" points="634.154 277.164 634.806 277.148 706.795 275.472 729.501 313.459 634.154 277.164"/><polygon class="ae" points="719.245 281.254 744.334 320.644 761.239 301.526 719.245 281.254"/><polygon class="af" points="814.053 353.746 818.672 316.795 858.062 332.961 814.053 353.746"/><polygon class="ag" points="824.318 354.795 868.326 338.863 893.474 375.43 824.318 354.795"/><polygon class="ah" points="880.515 343.482 903.482 379.022 934.532 363.369 880.515 343.482"/><polygon class="ai" points="937.483 365.422 914.516 381.332 958.396 395.061 937.483 365.422"/><polygon class="aj" points="945.181 368.373 973.28 377.996 968.276 398.781 945.181 368.373"/><polygon class="ak" points="470.325 253.989 504.582 235.321 529.217 274.197 470.325 253.989"/><polygon class="al" points="514.782 238.593 586.761 267.077 539.609 277.662 514.782 238.593"/><polygon class="am" points="552.365 281.534 595.283 271.141 610.872 301.742 552.365 281.534"/><polygon class="an" points="617.415 303.474 604.713 275.952 670.918 301.742 617.415 303.474"/><polygon class="ao" points="627.23 307.002 677.839 305.462 685.481 328.044 627.23 307.002"/><polygon class="ap" points="689.843 329.584 683.685 307.002 716.531 320.346 689.843 329.584"/><polygon class="aq" points="697.424 332.833 719.245 325.648 716.413 338.863 697.424 332.833"/><polygon class="ar" points="718.98 271.375 766.132 211.136 719.364 234.744 718.98 271.375"/><polygon class="as" points="722.921 272.529 763.245 222.747 758.882 283.692 722.921 272.529"/><polygon class="at" points="719.852 344.881 758.14 337.87 756.113 373.799 717.605 408.438 719.852 344.881"/><polygon class="au" points="756.894 380.819 717.632 418.155 751.12 450.681 756.894 380.819"/><polygon class="av" points="717.632 422.774 714.361 507.456 749.388 466.655 717.632 422.774"/><polygon class="aw" points="749.388 477.625 714.361 519.773 745.539 557.687 749.388 477.625"/><polygon class="ax" points="713.013 526.316 711.859 602.337 744.961 567.31 713.013 526.316"/><polygon class="ay" points="744.961 578.087 711.859 612.922 739.957 654.878 744.961 578.087"/><polygon class="az" points="710.896 618.888 707.817 700.298 739.765 661.229 710.896 618.888"/><polygon class="ba" points="739.765 669.697 711.859 707.226 732.836 770.545 739.765 669.697"/><polygon class="bb" points="707.817 715.117 704.93 824.048 730.527 784.209 707.817 715.117"/><polygon class="bc" points="734.477 793.639 730.527 892.177 702.428 840.022 734.477 793.639"/><polygon class="bd" points="702.428 849.26 701.466 921.816 730.527 899.491 702.428 849.26"/><polygon class="be" points="701.466 927.782 731.874 905.265 723.983 942.986 701.466 927.782"/><polygon class="bf" points="701.466 933.171 700.696 963.964 728.795 951.262 701.466 933.171"/><polygon class="bg" points="746.437 289.713 793.396 285.36 795.962 380.241 762.369 379.022 746.437 289.713"/><polygon class="bh" points="762.369 379.022 807.766 389.8 830.091 384.411 795.954 379.916 762.369 379.022"/><polygon class="bi" points="793.396 285.36 836.058 298.704 830.091 384.411 795.962 380.241 793.396 285.36"/><polygon class="bh" points="797.245 290.236 833.171 300.115 828.68 382.23 799.042 378.381 797.245 290.236"/><polygon class="bj" points="750.158 293.443 788.213 289.594 789.419 310.187 751.505 302.681 750.158 293.443"/><polygon class="bj" points="765.027 376.328 792.113 377.226 788.906 313.459 752.21 304.734 765.027 376.328"/><polygon class="e" points="441.874 264.278 440.309 458.071 443.94 458.138 444.713 264.278 441.874 264.278"/><polygon class="bk" points="442.32 458.039 531.117 562.035 532.621 561.367 443.396 457.113 442.32 458.039"/><polygon class="bl" points="441.07 457.113 409.111 561.872 410.274 563.036 442.32 457.785 441.07 457.113"/><polygon class="bl" points="440.291 457.442 334.435 577.322 335.598 578.486 441.541 458.115 440.291 457.442"/><polygon class="bm" points="418.293 538.177 532.621 560.839 534.473 581.881 418.293 556.909 418.293 538.177"/><polygon class="l" points="334.435 578.486 418.293 538.177 418.293 556.909 334.435 590.782 334.435 578.486"/><polygon class="e" points="334.435 590.782 469.808 610.797 534.473 581.881 418.293 556.909 334.435 590.782"/><circle class="d" cx="442.04254" cy="457.62562" r="3.00714"/><polygon class="bn" points="163.628 991.759 163.628 971.967 771.846 963.964 744.961 980.38 683.267 990.979 667.172 1002.742 543.683 1016.672 491.486 1016.672 431.155 1016.672 418.293 1005.813 386.15 1008.207 379 1016.672 216.01 1010.346 210.199 990.318 188.974 995.983 163.628 991.759"/><line class="bo" x1="348.72528" y1="981.02715" x2="380.56251" y2="981.02715"/><line class="bo" x1="168.76748" y1="986.94126" x2="200.60471" y2="986.94126"/><line class="bo" x1="326.7586" y1="1004.68358" x2="358.59583" y2="1004.68358"/><line class="bo" x1="380.83043" y1="998.76947" x2="412.66766" y2="998.76947"/><line class="bo" x1="438.28175" y1="986.09639" x2="470.11898" y2="986.09639"/><line class="bo" x1="523.61385" y1="983.56177" x2="555.45108" y2="983.56177"/><line class="bo" x1="310.70603" y1="992.85536" x2="342.54326" y2="992.85536"/><line class="bo" x1="611.48058" y1="986.09639" x2="643.31781" y2="986.09639"/><line class="bo" x1="574.30619" y1="997.07973" x2="606.14342" y2="997.07973"/><line class="bo" x1="638.86874" y1="972.7492" x2="733.71914" y2="970.88868"/><line class="bo" x1="262.54831" y1="998.76947" x2="294.38554" y2="998.76947"/><line class="bo" x1="406.1766" y1="973.4233" x2="438.01383" y2="973.4233"/><line class="bo" x1="205.94186" y1="983.31975" x2="322.46406" y2="983.31975"/><line class="bo" x1="435.74713" y1="1007.82104" x2="552.26933" y2="1007.82104"/></svg>