<svg xmlns="http://www.w3.org/2000/svg" xmlns:xlink="http://www.w3.org/1999/xlink" viewBox="0 0 1242 2208"><defs><style>.a{fill:url(#a);}.b{opacity:0.43;}.c,.d{fill:#fff;}.c{opacity:0.54;}.e,.i{fill:#333;}.f{fill:#534741;}.g{fill:#726f70;}.h,.l{fill:#666;}.i{stroke:gray;stroke-width:13.97283px;}.aa,.ab,.ac,.ad,.ae,.af,.ag,.ah,.ai,.aj,.ak,.al,.am,.an,.ao,.ap,.aq,.ar,.as,.at,.au,.av,.aw,.ax,.ay,.az,.ba,.bb,.bc,.bd,.be,.bl,.i,.l,.n,.p,.q,.r,.s,.t,.u,.v,.w,.x,.y,.z{stroke-miterlimit:10;}.j{fill:#1a1a1a;}.k{fill:#72aba6;}.l,.n{stroke:#c7b299;stroke-width:9.41771px;}.m,.n{fill:#c7b299;}.o{fill:#bdb299;}.p,.r,.t{fill:#d8b04c;}.p{stroke-width:2.00926px;stroke:url(#b);}.aa,.ab,.ac,.ad,.ae,.af,.ag,.ah,.ai,.aj,.ak,.q,.x,.y,.z{fill:#c29c4c;stroke-width:2.44749px;}.q{stroke:url(#c);}.al,.am,.ao,.ap,.aq,.ar,.as,.at,.au,.av,.r,.s,.u{stroke-width:2.3501px;}.r{stroke:url(#d);}.al,.am,.an,.ao,.ap,.aq,.ar,.as,.at,.au,.av,.aw,.ax,.ay,.az,.ba,.bb,.bc,.bd,.be,.s,.u{fill:#bd9a4c;}.s{stroke:url(#e);}.t{stroke-width:2.24843px;stroke:url(#f);}.u{stroke:url(#g);}.bk,.v{fill:#998675;}.v,.w{stroke-width:2.0812px;}.v{stroke:url(#h);}.w{fill:#736357;stroke:url(#i);}.x{stroke:url(#j);}.y{stroke:url(#k);}.z{stroke:url(#l);}.aa{stroke:url(#m);}.ab{stroke:url(#n);}.ac{stroke:url(#o);}.ad{stroke:url(#p);}.ae{stroke:url(#q);}.af{stroke:url(#r);}.ag{stroke:url(#s);}.ah{stroke:url(#t);}.ai{stroke:url(#u);}.aj{stroke:url(#v);}.ak{stroke:url(#w);}.al{stroke:url(#x);}.am{stroke:url(#y);}.an{stroke-width:2.24987px;stroke:url(#z);}.ao{stroke:url(#aa);}.ap{stroke:url(#ab);}.aq{stroke:url(#ac);}.ar{stroke:url(#ad);}.as{stroke:url(#ae);}.at{stroke:url(#af);}.au{stroke:url(#ag);}.av{stroke:url(#ah);}.aw{stroke-width:2.22564px;stroke:url(#ai);}.ax{stroke-width:2.24562px;stroke:url(#aj);}.ay,.ba,.bb,.bc{stroke-width:2.1268px;}.ay{stroke:url(#ak);}.az,.bd,.be{stroke-width:2.16126px;}.az{stroke:url(#al);}.ba{stroke:url(#am);}.bb{stroke:url(#an);}.bc{stroke:url(#ao);}.bd{stroke:url(#ap);}.be{stroke:url(#aq);}.bf{fill:#d68d68;}.bg{fill:#a9775b;}.bh{fill:#d4ae77;}.bi{fill:#53473c;}.bj{fill:#734d2d;}.bl{fill:#c69c6d;stroke:#736357;stroke-width:13.2816px;opacity:0.29;}</style><radialGradient id="a" cx="621" cy="1104" r="1174.42721" gradientUnits="userSpaceOnUse"><stop offset="0" stop-color="#5ec8b5"/><stop offset="0.17302" stop-color="#57c2b3"/><stop offset="0.41917" stop-color="#45b1af"/><stop offset="0.70911" stop-color="#2696a7"/><stop offset="1" stop-color="#00749d"/></radialGradient><linearGradient id="b" x1="416.22214" y1="1491.9101" x2="1468.94279" y2="569.27709" gradientUnits="userSpaceOnUse"><stop offset="0" stop-color="#efafca"/><stop offset="0.77743" stop-color="#f4eaba"/><stop offset="0.97728" stop-color="#e3efb9"/></linearGradient><linearGradient id="c" x1="418.59592" y1="269.13106" x2="530.65856" y2="170.91631" xlink:href="#b"/><linearGradient id="d" x1="714.80709" y1="461.19865" x2="992.56125" y2="217.76735" xlink:href="#b"/><linearGradient id="e" x1="647.45956" y1="1704.63721" x2="1701.18545" y2="781.12318" xlink:href="#b"/><linearGradient id="f" x1="1076.62866" y1="280.82836" x2="1224.83814" y2="150.93355" xlink:href="#b"/><linearGradient id="g" x1="1098.25535" y1="266.66171" x2="1229.81477" y2="151.35946" xlink:href="#b"/><linearGradient id="h" x1="516.37539" y1="371.63832" x2="560.01004" y2="333.39573" xlink:href="#b"/><linearGradient id="i" x1="533.99383" y1="391.07607" x2="599.33519" y2="333.80912" xlink:href="#b"/><linearGradient id="j" x1="523.91633" y1="227.24679" x2="596.98801" y2="163.20478" xlink:href="#b"/><linearGradient id="k" x1="592.81247" y1="299.06433" x2="662.81907" y2="237.70864" xlink:href="#b"/><linearGradient id="l" x1="655.83854" y1="278.41683" x2="735.03019" y2="209.01111" xlink:href="#b"/><linearGradient id="m" x1="763.47199" y1="387.25154" x2="843.04465" y2="317.5119" xlink:href="#b"/><linearGradient id="n" x1="893.24455" y1="382.4407" x2="973.93713" y2="311.71953" xlink:href="#b"/><linearGradient id="o" x1="992.84961" y1="481.82611" x2="1079.19474" y2="406.15089" xlink:href="#b"/><linearGradient id="p" x1="1120.97411" y1="465.81993" x2="1161.45078" y2="430.34508" xlink:href="#b"/><linearGradient id="q" x1="649.35234" y1="407.84269" x2="709.09219" y2="355.48507" xlink:href="#b"/><linearGradient id="r" x1="734.49774" y1="396.24219" x2="800.70284" y2="338.21824" xlink:href="#b"/><linearGradient id="s" x1="809.39245" y1="463.51749" x2="870.92875" y2="409.5854" xlink:href="#b"/><linearGradient id="t" x1="906.29443" y1="470.40009" x2="971.34893" y2="413.38456" xlink:href="#b"/><linearGradient id="u" x1="955.29383" y1="515.43015" x2="1017.22919" y2="461.14832" xlink:href="#b"/><linearGradient id="v" x1="1037.85731" y1="511.64803" x2="1079.96408" y2="474.74451" xlink:href="#b"/><linearGradient id="w" x1="1070.17623" y1="539.98973" x2="1105.70168" y2="508.85425" xlink:href="#b"/><linearGradient id="x" x1="1083.2574" y1="382.10084" x2="1202.86731" y2="277.27146" xlink:href="#b"/><linearGradient id="y" x1="1123.25353" y1="419.16016" x2="1222.33317" y2="332.32406" xlink:href="#b"/><linearGradient id="z" x1="1067.95338" y1="645.6153" x2="1187.51638" y2="540.82704" xlink:href="#b"/><linearGradient id="aa" x1="1129.27551" y1="733.1213" x2="1213.80363" y2="659.03856" xlink:href="#b"/><linearGradient id="ab" x1="1050.48051" y1="835.18338" x2="1143.08242" y2="754.02455" xlink:href="#b"/><linearGradient id="ac" x1="1116.71996" y1="940.13331" x2="1205.22558" y2="862.56458" xlink:href="#b"/><linearGradient id="ad" x1="1049.17962" y1="1031.85783" x2="1130.39237" y2="960.68077" xlink:href="#b"/><linearGradient id="ae" x1="1107.80623" y1="1140.6868" x2="1194.43457" y2="1064.76336" xlink:href="#b"/><linearGradient id="af" x1="1039.11205" y1="1229.23738" x2="1128.35744" y2="1151.02029" xlink:href="#b"/><linearGradient id="ag" x1="1081.53596" y1="1364.75097" x2="1196.37896" y2="1264.09944" xlink:href="#b"/><linearGradient id="ah" x1="1018.50484" y1="1464.61655" x2="1137.30525" y2="1360.49664" xlink:href="#b"/><linearGradient id="ai" x1="1075.78414" y1="1610.52677" x2="1183.67109" y2="1515.97171" xlink:href="#b"/><linearGradient id="aj" x1="1035.45752" y1="1682.80185" x2="1113.19507" y2="1614.67054" xlink:href="#b"/><linearGradient id="ak" x1="1087.1719" y1="1753.58317" x2="1140.79098" y2="1706.58994" xlink:href="#b"/><linearGradient id="al" x1="1058.32868" y1="1797.1357" x2="1100.10236" y2="1760.52411" xlink:href="#b"/><linearGradient id="am" x1="1087.28592" y1="1845.84006" x2="1133.33096" y2="1805.48493" xlink:href="#b"/><linearGradient id="an" x1="1059.7783" y1="2184.47571" x2="1130.36093" y2="2122.61517" xlink:href="#b"/><linearGradient id="ao" x1="1057.96587" y1="2019.29007" x2="1151.97238" y2="1936.90021" xlink:href="#b"/><linearGradient id="ap" x1="1032.54139" y1="1926.68754" x2="1102.02967" y2="1865.78612" xlink:href="#b"/><linearGradient id="aq" x1="1029.62868" y1="2102.29399" x2="1099.0277" y2="2041.4708" xlink:href="#b"/></defs><rect class="a" width="1242" height="2208"/><g class="b"><circle class="c" cx="160.35174" cy="480.81992" r="143.40885"/><polygon class="d" points="431.689 552.954 441.827 563.198 450.231 552.901 446.808 564.858 456.723 570.79 444.199 570.11 441.042 581.462 438.507 569.839 426.01 570.606 436.846 564.858 431.689 552.954"/><polygon class="d" points="991.176 881.674 1001.314 891.918 1009.719 881.621 1006.295 893.578 1016.211 899.51 1003.686 898.829 1000.529 910.181 997.994 898.559 985.497 899.325 996.334 893.578 991.176 881.674"/><polygon class="d" points="360.301 896.616 370.438 906.86 378.843 896.563 375.419 908.52 385.335 914.452 372.81 913.771 369.653 925.123 367.118 913.5 354.621 914.267 365.458 908.52 360.301 896.616"/><polygon class="d" points="320.456 210.953 330.594 221.197 338.998 210.9 335.574 222.857 345.49 228.789 332.965 228.108 329.809 239.46 327.273 227.838 314.776 228.604 325.613 222.857 320.456 210.953"/><polygon class="d" points="727.205 182.73 737.343 192.974 745.747 182.677 742.323 194.634 752.239 200.566 739.714 199.885 736.558 211.237 734.022 199.614 721.525 200.381 732.362 194.634 727.205 182.73"/><polygon class="d" points="1094.109 308.905 1104.247 319.149 1112.651 308.852 1109.227 320.809 1119.143 326.741 1106.618 326.06 1103.462 337.412 1100.926 325.79 1088.43 326.556 1099.266 320.809 1094.109 308.905"/><polygon class="d" points="187.64 753.839 197.778 764.082 206.182 753.786 202.758 765.743 212.674 771.675 200.149 770.994 196.993 782.346 194.457 770.723 181.96 771.49 192.797 765.743 187.64 753.839"/><polygon class="d" points="793.613 685.77 803.751 696.014 812.155 685.717 808.731 697.674 818.647 703.606 806.122 702.926 802.966 714.278 800.43 702.655 787.933 703.422 798.77 697.674 793.613 685.77"/><polygon class="e" points="926.786 1455.812 887.195 1463.381 887.195 1021.627 926.786 1014.058 926.786 1455.812"/><polygon class="e" points="751.034 1419.005 777.199 1426.78 777.199 969.623 751.034 965.257 751.034 1419.005"/><polygon class="e" points="609.758 1419.005 635.923 1426.78 635.923 965.257 609.758 965.257 609.758 1419.005"/><polygon class="f" points="687.989 1450.558 693.582 1453.403 693.582 1170.852 687.989 1172.767 687.989 1450.558"/><polygon class="f" points="707.096 1408.826 712.689 1411.671 712.689 1129.12 707.096 1131.035 707.096 1408.826"/><polygon class="f" points="726.203 1460.537 731.797 1463.381 731.797 1180.83 726.203 1182.745 726.203 1460.537"/><polygon class="g" points="518.035 1521.553 542.224 1521.553 542.224 1537.501 567.643 1537.501 567.643 1557.993 588.558 1557.993 588.558 1571.559 613.807 1571.559 613.807 1585.944 637.593 1585.944 637.593 1596.22 661.991 1596.22 661.991 1601.983 501.188 1615.708 518.035 1521.553"/><polygon class="h" points="300.326 1832.405 282.237 1834.885 283.892 1846.811 264.882 1849.418 267.008 1864.742 251.368 1866.887 252.775 1877.033 233.894 1879.622 235.386 1890.379 217.598 1892.819 218.664 1900.503 200.419 1903.005 201.017 1907.315 322.693 1901.088 300.326 1832.405"/><polygon class="e" points="559.15 1419.005 585.315 1426.78 585.315 965.257 559.15 965.257 559.15 1419.005"/><polygon class="i" points="764.152 1343.975 108.169 1266.226 63.312 1473.372 764.152 1444.022 764.152 1343.975"/><rect class="e" x="11.12281" y="1419.02991" width="1062.20153" height="44.35218" transform="translate(-108.32527 45.54582) rotate(-4.37354)"/><rect class="g" x="9.22938" y="1419.29678" width="1062.20153" height="2.53755" transform="translate(-106.75677 45.34133) rotate(-4.37354)"/><rect class="e" x="-29.91286" y="1614.34609" width="1062.20153" height="44.35218" transform="matrix(0.99709, -0.07626, 0.07626, 0.99709, -123.33928, 42.98525)"/><polygon class="j" points="521.219 1333.653 621.463 1345.892 609.835 1389.751 508.613 1383.193 521.219 1333.653"/><polygon class="j" points="672.543 1357.663 716.51 1360.987 709.475 1395.547 666.681 1387.387 672.543 1357.663"/><polyline class="j" points="284.285 1334.59 284.285 1376.605 444.982 1383.193 444.982 1316.866 286.239 1333.653"/><polygon class="h" points="417.179 1360.987 249.769 1347.172 275.081 1308.194 444.982 1316.866 417.179 1360.987"/><polygon class="h" points="585.8 1367.604 483.797 1358.423 521.219 1333.653 621.463 1346.007 585.8 1367.604"/><polygon class="h" points="705.975 1372.072 650.968 1367.604 673.345 1357.663 716.51 1360.987 705.975 1372.072"/><polygon class="e" points="477.739 1934.885 284.285 1934.885 249.769 1453.403 535.189 1453.403 477.739 1934.885"/><polygon class="e" points="53.313 1463.381 77.934 1934.885 162.35 1934.885 133.039 1463.381 53.313 1463.381"/><polygon class="e" points="771.029 1441.206 746.407 1934.885 661.991 1934.885 691.302 1441.206 771.029 1441.206"/><rect class="e" x="887.19471" y="1441.206" width="39.59173" height="493.67892"/><polygon class="k" points="795.976 1404.884 793.353 1381.118 812.057 1379.688 810.903 1364.773 828.827 1363.402 828.02 1353.916 842.9 1352.778 843.575 1361.495 857.797 1360.407 858.989 1375.806 873.017 1374.733 875.302 1396.674 795.976 1404.884"/><polygon class="g" points="802.113 1404.415 799.49 1380.649 818.194 1379.219 817.04 1364.304 834.965 1362.933 834.157 1353.447 849.037 1352.309 849.712 1361.025 863.935 1359.938 865.126 1375.337 879.154 1374.264 881.44 1396.204 802.113 1404.415"/><rect class="g" x="-31.74873" y="1611.52693" width="1062.20153" height="2.53755" transform="translate(-121.53528 42.77616) rotate(-4.37354)"/><polyline class="j" points="310.176 1517.913 312.342 1559.873 473.168 1558.26 469.747 1492.02 312.079 1516.877"/><polygon class="h" points="444.256 1537.501 276.354 1532.238 299.622 1492.021 469.747 1492.02 444.256 1537.501"/><polygon class="j" points="338.331 1717.337 439.327 1716.902 432.725 1766.642 332.114 1768.062 338.331 1717.337"/><polygon class="h" points="406.704 1742.915 314.036 1743.719 338.331 1717.337 439.342 1717.016 406.704 1742.915"/><polygon class="j" points="334.692 1826.429 435.689 1825.994 429.087 1875.734 328.475 1877.154 334.692 1826.429"/><polygon class="h" points="403.066 1852.007 310.398 1852.811 334.692 1826.429 435.703 1826.108 403.066 1852.007"/><polygon class="j" points="692.857 1669.231 736.443 1662.594 737.443 1697.841 693.9 1699.503 692.857 1669.231"/><polygon class="h" points="728.7 1675.759 682.843 1679.169 693.639 1669.051 736.443 1662.594 728.7 1675.759"/><polygon class="j" points="699.224 1548.055 742.81 1541.418 743.81 1576.665 700.268 1578.327 699.224 1548.055"/><polygon class="h" points="735.067 1554.583 689.21 1557.993 700.006 1547.875 742.81 1541.418 735.067 1554.583"/><polygon class="j" points="692.357 1759.392 735.943 1752.756 736.943 1788.002 693.401 1789.665 692.357 1759.392"/><polygon class="h" points="728.2 1765.921 682.343 1769.33 693.139 1759.212 735.943 1752.756 728.2 1765.921"/><polygon class="j" points="686.946 1849.924 730.532 1843.287 731.532 1878.534 687.989 1880.196 686.946 1849.924"/><polygon class="h" points="722.789 1856.452 676.932 1859.862 687.728 1849.744 730.532 1843.287 722.789 1856.452"/><polygon class="j" points="704.232 1470.018 747.817 1463.381 748.817 1498.628 705.275 1500.29 704.232 1470.018"/><polygon class="h" points="740.074 1476.546 694.217 1479.956 705.013 1469.838 747.817 1463.381 740.074 1476.546"/><polygon class="l" points="13.472 1924.352 88.782 2202.112 921.793 2202.112 940.048 1877.154 13.472 1924.352"/><polygon class="m" points="9.664 1919.662 940.048 1877.154 937.044 1940.724 29.161 1971.549 9.664 1919.662"/><polygon class="n" points="125.3 2196.974 83.959 2006.541 154.238 2002.431 192.134 2196.974 125.3 2196.974"/><polygon class="n" points="396.652 2193.932 371.9 1977.469 551.042 1974.474 557.472 2199.069 396.652 2193.932"/><polygon class="n" points="661.991 2196.974 659.281 1961.932 731.532 1959.275 726.115 2196.974 661.991 2196.974"/><polygon class="o" points="13.472 1947.57 943.153 1907.214 953.56 1865.429 4.723 1917.623 13.472 1947.57"/><polygon class="p" points="423.284 161.252 537.392 131.725 1099.159 404.278 1099.159 322.513 1202.296 268.002 1099.27 2217.563 1054.395 2217.874 1099.159 549.64 423.284 302.071 423.284 161.252"/><path class="q" d="M439.01184,174.86219q38.09724-9.38568,76.19422-18.77138,3.62873,49.21947,7.25746,98.43892-43.11306,15.75834-86.2261,31.51672Q437.6245,230.45434,439.01184,174.86219Z"/><path class="r" d="M537.39251,131.72533V256.64551q326.71713,136.26484,653.43426,272.52966,1.73726-39.5623,3.47451-79.12466Z"/><polygon class="s" points="1202.296 268.002 1305.433 331.598 1147.547 2217.563 1099.27 2217.563 1202.296 268.002"/><path class="t" d="M1111.56213,315.95731q27.51687-74.5728,55.03327-149.14559c-1.49666-5.78334-3.96584-18.6913,1.09162-32.60122,1.50871-4.14954,4.56373-12.24269,12.14486-17.89359,4.16642-3.10559,8.97943-4.93685,9.23691-4.488.24253.42315-3.86024,2.3545-7.73688,6.93869a34.43033,34.43033,0,0,0-7.098,15.36868,39.42554,39.42554,0,0,0-.51737,13.25284c0,.00009.53762,2.98224,5.35882,14.72538q-21.78,70.59159-43.56055,141.18314Q1123.53848,309.6275,1111.56213,315.95731Z"/><path class="u" d="M1134.26986,303.10353l44.8055-140.989a38.85026,38.85026,0,0,1-5.67271-22.31166c.97543-14.32479,10.90231-29.291,18.15268-28.18315,6.55749,1.002,10.76875,15.12917,10.21136,25.83456-.7353,14.11925-9.82032,23.32052-12.48045,25.83455q-15.53184,63.57752-31.0637,127.15506Q1146.2462,296.77372,1134.26986,303.10353Z"/><ellipse class="h" cx="1192.04371" cy="136.29169" rx="9.26123" ry="3.93156" transform="translate(936.87133 1308.65284) rotate(-84.24326)"/><polygon class="h" points="1290.514 320.775 1193.154 132.855 1190.933 137.704 1275.079 311.258 1290.514 320.775"/><path class="v" d="M522.46352,337.63856l24.87371-15.60637q-.20976,25.64738-.41974,51.29472-10.88462,2.94651-21.76922,5.893Q523.80579,358.42921,522.46352,337.63856Z"/><path class="w" d="M547.33723,322.03219,612.22536,350.626q-11.58371,25.12752-23.16721,50.255-6.249-2.17829-12.54456-4.34529-8.12535-2.79672-16.19967-5.52995s-9.45567-3.2006-35.16565-11.78591c.00235,1.84075,7.57-1.52746,21.76922-5.893Q547.12725,347.67954,547.33723,322.03219Z"/><polygon class="x" points="550.407 156.091 550.407 253.188 616.968 188.732 550.407 156.091"/><polygon class="y" points="557.719 256.058 623.523 195.386 672.687 303.104 557.719 256.058"/><polygon class="z" points="638.272 197.014 782.36 266.297 685.127 309.468 638.272 197.014"/><polygon class="aa" points="702.563 313.99 806.183 277.403 895.26 395.298 702.563 313.99"/><polyline class="ab" points="834.928 292.443 910.375 400.028 1039.338 390.732 837.408 292.443"/><polygon class="ac" points="937.133 412.401 938.412 412.37 1079.873 408.96 1124.491 486.221 937.133 412.401"/><polygon class="ad" points="1104.339 420.721 1153.64 500.834 1186.858 461.952 1104.339 420.721"/><polygon class="ae" points="615.203 365.268 682.519 327.299 730.927 406.368 615.203 365.268"/><polygon class="af" points="702.563 333.953 844.004 391.885 751.349 413.414 702.563 333.953"/><polygon class="ag" points="776.413 421.289 860.748 400.152 891.381 462.39 776.413 421.289"/><polygon class="ah" points="904.24 465.912 879.28 409.938 1009.375 462.39 904.24 465.912"/><polygon class="ai" points="923.527 473.089 1022.974 469.957 1037.991 515.885 923.527 473.089"/><polygon class="aj" points="1046.563 519.017 1034.461 473.089 1099.005 500.228 1046.563 519.017"/><polygon class="ak" points="1061.46 525.625 1104.339 511.011 1098.774 537.89 1061.46 525.625"/><polygon class="al" points="1103.817 400.627 1196.472 278.109 1104.573 326.125 1103.817 400.627"/><polygon class="am" points="1111.562 402.976 1190.799 301.725 1182.227 425.679 1111.562 402.976"/><polygon class="an" points="1105.53 550.129 1180.768 535.871 1176.786 608.945 1101.116 679.396 1105.53 550.129"/><polygon class="ao" points="1178.319 623.222 1101.169 699.16 1166.974 765.312 1178.319 623.222"/><polygon class="ap" points="1101.169 708.554 1094.74 880.785 1163.57 797.801 1101.169 708.554"/><polygon class="aq" points="1163.57 820.113 1094.74 905.837 1156.006 982.949 1163.57 820.113"/><polygon class="ar" points="1092.093 919.145 1089.824 1073.761 1154.872 1002.52 1092.093 919.145"/><polygon class="as" points="1154.872 1024.441 1089.824 1095.29 1145.039 1180.622 1154.872 1024.441"/><polygon class="at" points="1087.933 1107.424 1081.882 1273 1144.661 1193.54 1087.933 1107.424"/><polygon class="au" points="1144.661 1210.763 1089.824 1287.092 1131.046 1415.873 1144.661 1210.763"/><polygon class="av" points="1081.882 1303.141 1076.209 1524.692 1126.508 1443.665 1081.882 1303.141"/><polygon class="aw" points="1132.102 1462.845 1125.14 1663.259 1075.619 1557.18 1132.102 1462.845"/><polygon class="ax" points="1076.224 1575.969 1074.497 1723.539 1126.638 1678.133 1076.224 1575.969"/><polygon class="ay" points="1073.041 1735.607 1121.879 1689.716 1109.206 1766.593 1073.041 1735.607"/><polygon class="az" points="1072.98 1746.634 1071.701 1809.263 1118.399 1783.429 1072.98 1746.634"/><polygon class="ba" points="1072.395 1818.826 1116.395 1789.826 1107.206 1866.593 1072.395 1818.826"/><polygon class="bb" points="1063.395 2163.826 1101.395 2096.826 1086.395 2211.826 1063.395 2163.826"/><polygon class="bc" points="1066.395 1981.826 1107.395 1892.826 1100.395 2063.826 1066.395 1981.826"/><polygon class="bd" points="1070.395 1831.826 1066.395 1958.826 1104.395 1879.826 1070.395 1831.826"/><polygon class="be" points="1067.395 2008.826 1063.395 2135.826 1101.395 2080.826 1067.395 2008.826"/><polygon class="bf" points="1157.771 437.925 1250.048 429.072 1255.09 622.048 1189.079 619.569 1157.771 437.925"/><polygon class="bg" points="1189.079 619.569 1278.286 641.489 1322.155 630.529 1255.073 621.385 1189.079 619.569"/><polygon class="bh" points="1165.083 445.512 1239.863 437.683 1242.232 479.566 1167.73 464.301 1165.083 445.512"/><polygon class="bh" points="1194.301 614.089 1247.527 615.915 1241.224 486.221 1169.117 468.476 1194.301 614.089"/><polygon class="f" points="559.296 386.194 556.22 780.343 563.355 780.48 564.874 386.194 559.296 386.194"/><polygon class="bi" points="560.172 780.277 734.662 991.793 737.617 990.433 562.287 778.395 560.172 780.277"/><polygon class="bj" points="557.715 778.395 494.915 991.462 497.201 993.828 560.172 779.762 557.715 778.395"/><polygon class="bj" points="556.186 779.065 348.174 1022.885 350.461 1025.252 558.642 780.432 556.186 779.065"/><polygon class="bk" points="512.959 943.268 737.617 989.359 741.256 1032.156 512.959 981.368 512.959 943.268"/><polygon class="m" points="348.174 1025.252 512.959 943.268 512.959 981.368 348.174 1050.26 348.174 1025.252"/><polygon class="f" points="348.174 1050.26 614.186 1090.969 741.256 1032.156 512.959 981.368 348.174 1050.26"/><ellipse class="e" cx="559.62711" cy="779.43732" rx="5.90913" ry="6.11614"/><line class="bl" x1="13.63325" y1="1964.90154" x2="76.19438" y2="1964.90154"/><line class="bl" x1="543.23703" y1="1963.24134" x2="605.79816" y2="1963.24134"/><line class="bl" x1="710.91723" y1="1958.26074" x2="773.47836" y2="1958.26074"/><line class="bl" x1="86.68205" y1="1957.78516" x2="315.65173" y2="1957.78516"/></g></svg>